<svg xmlns="http://www.w3.org/2000/svg" viewBox="0 0 1200 760" role="img" aria-labelledby="title desc">
  <title id="title">赛博狗屎博物馆</title>
  <desc id="desc">一个充满霓虹灯、展柜与巨大屎雕塑的互联网垃圾博物馆幻想场景</desc>
  <defs>
    <linearGradient id="bg" x1="0" y1="0" x2="1" y2="1"><stop offset="0" stop-color="#20170e"/><stop offset=".55" stop-color="#0b0d12"/><stop offset="1" stop-color="#23110d"/></linearGradient>
    <radialGradient id="glow" cx="50%" cy="35%" r="60%"><stop offset="0" stop-color="#7b532b" stop-opacity=".55"/><stop offset="1" stop-color="#0b0d12" stop-opacity="0"/></radialGradient>
    <linearGradient id="poop" x1="0" y1="0" x2="0" y2="1"><stop offset="0" stop-color="#b56b2c"/><stop offset=".42" stop-color="#7a421f"/><stop offset="1" stop-color="#3b2018"/></linearGradient>
    <filter id="soft" x="-30%" y="-30%" width="160%" height="160%"><feGaussianBlur stdDeviation="8"/></filter>
  </defs>
  <rect width="1200" height="760" fill="url(#bg)"/><ellipse cx="620" cy="240" rx="430" ry="270" fill="url(#glow)"/>
  <g opacity=".28" filter="url(#soft)" fill="#ff8e2c"><circle cx="130" cy="140" r="36"/><circle cx="1050" cy="150" r="44"/><circle cx="160" cy="550" r="28"/><circle cx="1060" cy="530" r="30"/></g>
  <g fill="#17191f" stroke="#343945" stroke-width="5"><rect x="30" y="300" width="250" height="330" rx="18"/><rect x="920" y="300" width="250" height="330" rx="18"/><rect x="350" y="375" width="500" height="255" rx="22"/></g>
  <g fill="#272c35" stroke="#4b515d" stroke-width="3"><rect x="55" y="330" width="200" height="165" rx="12"/><rect x="945" y="330" width="200" height="165" rx="12"/></g>
  <g fill="#15171c" stroke="#5a606c" stroke-width="3"><rect x="78" y="352" width="154" height="120" rx="10"/><rect x="968" y="352" width="154" height="120" rx="10"/></g>
  <g transform="translate(430 110)">
    <ellipse cx="170" cy="430" rx="190" ry="28" fill="#07080a" opacity=".8"/>
    <path d="M35 415 C8 384 22 335 62 320 C33 286 55 237 96 232 C88 176 126 139 168 154 C170 108 208 76 245 98 C278 64 331 87 329 132 C371 131 397 169 380 205 C418 221 419 270 384 292 C407 338 382 389 335 392 C313 425 259 440 211 425 C155 448 80 444 35 415Z" fill="url(#poop)" stroke="#cf8a48" stroke-width="7" stroke-linejoin="round"/>
    <path d="M78 391 C62 365 72 338 100 328 C82 305 97 274 126 269 C120 238 143 219 171 224 C171 197 193 182 218 192 C237 172 270 186 267 214 C300 211 319 237 306 262 C329 271 329 300 307 314 C323 340 307 366 282 370 C266 395 231 401 201 390 C165 405 111 407 78 391Z" fill="#9b5726" opacity=".72"/>
    <rect x="96" y="278" width="93" height="34" rx="8" fill="#08090c" transform="rotate(-5 96 278)"/><rect x="232" y="278" width="93" height="34" rx="8" fill="#08090c" transform="rotate(5 232 278)"/><path d="M187 295h44" stroke="#0d1016" stroke-width="9"/><path d="M170 345 Q210 370 251 345" fill="none" stroke="#1e1410" stroke-width="9" stroke-linecap="round"/>
    <path d="M86 176 Q202 45 291 152" fill="none" stroke="#ffaf4a" stroke-width="6" stroke-dasharray="10 13" opacity=".8"/>
    <text x="205" y="495" text-anchor="middle" fill="#f6f0e7" font-family="system-ui, sans-serif" font-size="28" font-weight="900">CYBER SHIT MUSEUM</text>
  </g>
  <g font-family="system-ui, sans-serif" font-weight="800"><text x="82" y="535" fill="#d3aa75" font-size="24">远古狗屎</text><text x="82" y="566" fill="#7b8290" font-size="15">保存状态：不可挽救</text><text x="948" y="535" fill="#d3aa75" font-size="24">量子狗屎</text><text x="948" y="566" fill="#7b8290" font-size="15">Bug 密度：∞</text><text x="600" y="675" text-anchor="middle" fill="#c1c6cf" font-size="18" letter-spacing="3">INTERNET TRASH ARCHIVE · EST. 2026</text></g>
  <g fill="#ff7e2f" opacity=".9"><circle cx="75" cy="95" r="5"/><circle cx="1125" cy="92" r="5"/><circle cx="106" cy="665" r="5"/><circle cx="1090" cy="650" r="5"/></g>
</svg>